inDegrees=no
num_controls=7
num_derivatives=13
num_iterations=111
num_multipliers=7
num_parameters=0
num_slacks=7
num_states=26
objective=0.497122
objective_accelerations=0.032367
objective_balance=0.003287
objective_effort=0.035064
objective_height=0.420910
objective_ligament=0.005494
solver_duration=1273.140757
status=Solve_Succeeded
success=true
DataType=double
version=3
OpenSimVersion=4.5
endheader
time	/jointset/ground_pelvis/pelvis_tilt/value	/jointset/ground_pelvis/pelvis_tx/value	/jointset/ground_pelvis/pelvis_ty/value	/jointset/hip_r/hip_flexion_r/value	/jointset/hip_r/hip_adduction_r/value	/jointset/hip_r/hip_rotation_r/value	/jointset/back/lumbar_extension/value	/jointset/patellofemoral_r/patellar_flexion_r/value	/jointset/knee_r/knee_flexion_r/value	/jointset/knee_r/knee_adduction_r/value	/jointset/knee_r/knee_rotation_r/value	/jointset/ankle_r/ankle_angle_r/value	/jointset/subtalar_r/subtalar_angle_r/value	/jointset/ground_pelvis/pelvis_tilt/speed	/jointset/ground_pelvis/pelvis_tx/speed	/jointset/ground_pelvis/pelvis_ty/speed	/jointset/hip_r/hip_flexion_r/speed	/jointset/hip_r/hip_adduction_r/speed	/jointset/hip_r/hip_rotation_r/speed	/jointset/back/lumbar_extension/speed	/jointset/patellofemoral_r/patellar_flexion_r/speed	/jointset/knee_r/knee_flexion_r/speed	/jointset/knee_r/knee_adduction_r/speed	/jointset/knee_r/knee_rotation_r/speed	/jointset/ankle_r/ankle_angle_r/speed	/jointset/subtalar_r/subtalar_angle_r/speed	/forceset/tau_hip_flexion_r	/forceset/tau_hip_adduction_r	/forceset/tau_hip_rotation_r	/forceset/tau_knee_flexion_r	/forceset/tau_ankle_angle_r	/forceset/tau_subtalar_angle_r	/forceset/tau_lumbar_extension	lambda_cid13_p0	lambda_cid14_p0	lambda_cid14_p1	lambda_cid14_p2	lambda_cid14_p3	lambda_cid14_p4	lambda_cid14_p5	/jointset/ground_pelvis/pelvis_tilt/accel	/jointset/ground_pelvis/pelvis_tx/accel	/jointset/ground_pelvis/pelvis_ty/accel	/jointset/hip_r/hip_flexion_r/accel	/jointset/hip_r/hip_adduction_r/accel	/jointset/hip_r/hip_rotation_r/accel	/jointset/back/lumbar_extension/accel	/jointset/patellofemoral_r/patellar_flexion_r/accel	/jointset/knee_r/knee_flexion_r/accel	/jointset/knee_r/knee_adduction_r/accel	/jointset/knee_r/knee_rotation_r/accel	/jointset/ankle_r/ankle_angle_r/accel	/jointset/subtalar_r/subtalar_angle_r/accel	gamma_cid13_p0	gamma_cid14_p0	gamma_cid14_p1	gamma_cid14_p2	gamma_cid14_p3	gamma_cid14_p4	gamma_cid14_p5
1.5	-0.106797566843865	0.06163811172407781	0.871344170152766	0.6636909188238541	-0.2275477288917481	-0.1439555394378577	-0.2802426283282508	0.6439400766566733	0.6439400766568387	0.04193325560245841	0.1745257888279548	0.2570644208038115	0.05834671067566734	0.2292511883322177	0.1164527082350477	0.322547413469322	-1.435894312287934	0.01917747738546328	-0.2810914438713701	0.7004897695428497	-1.737692844478468	-1.737692844478471	0.2758969071384409	-1.483724255257024e-05	-0.620432495679747	-0.1523556098603071	-0.06467826427050444	-0.01619856353684293	0.006622705499359218	-0.3227774743022224	0.05637299885323507	-0.0125393765637875	0.1221705764710232	-34.40795026640772	-23.70974128761231	-5.597735552721944	-3.216012989922882	3.213842076136476	-662.9960715425348	56.94198270670922	0.04708297863515692	0.2697778167741613	-0.4399036773928448	-0.7321541890799658	-0.02112074346189046	-0.544916142995528	1.220841142221124	-1.021892758214501	-1.021892758214596	0.3958761213859271	-0.005454541051011827	-0.4580559486558655	-0.03578855103047851	1.144964786142357e-07	1.50301326252325e-07	-5.689769933557411e-07	1.2181138291338e-06	-1.853017866301994e-08	1.783155105106284e-07	-8.824904811083587e-07
1.51	-0.1045031002590458	0.0628159563485276	0.8745469176584421	0.649297351996052	-0.2273577462883197	-0.1467928495560874	-0.2731776363444403	0.6265145574561017	0.6265145574561485	0.04471371486520968	0.1745256289840797	0.2508378424899007	0.05682056814623877	0.229611036478583	0.119096784587504	0.3179334245452533	-1.442613054526484	0.01881986071119413	-0.2863598113035293	0.7123986898053042	-1.747151459011097	-1.747151459011099	0.2801720717420714	-1.774446814710916e-05	-0.6247909130537171	-0.1528442432340271	-0.05918459426059278	-0.01815891755757266	0.00597260022610615	-0.3196512647720617	0.06041492675642998	-0.01324829564366464	0.1170381884086523	-35.29721780294913	-22.28323592632406	-5.541739599984557	-3.355279501314558	2.713217925006997	-659.8881205075982	57.12132672359416	0.02578676264485628	0.2588071612124374	-0.4824077274707796	-0.6108161187606808	-0.0428168531171538	-0.5159772221097993	1.159426856211949	-0.8689409525772417	-0.8689409525771066	0.4398747692858595	0.002417876524356244	-0.410881673494046	-0.0510707533947789	1.235589823531252e-07	1.526412852644568e-07	-6.817391030147104e-07	1.244991081732881e-06	-8.191430354168551e-09	1.868210622950207e-07	-9.682864775192891e-07
1.52	-0.10220596498676	0.06401965865984827	0.8777014730293661	0.6348427813703623	-0.2271712867963774	-0.1496824793843943	-0.2659968532804138	0.6090022330798466	0.6090022330797731	0.04753623340188388	0.1745254654059151	0.2445704505939049	0.05529040527850254	0.2297849258252483	0.121624245609222	0.3129089865189086	-1.448095071865757	0.01847285508861574	-0.291555385887036	0.7236479855859272	-1.755053879615334	-1.755053879615335	0.2843087619230714	-1.558410022071625e-05	-0.6285952120967455	-0.1531596775218275	-0.05369092425067676	-0.02011927157829894	0.005322494952838587	-0.3165250552418997	0.06445685465962601	-0.01395721472353634	0.1119058003462846	-36.15300912213889	-20.86550457361029	-5.484703193325037	-3.497655961222078	2.208132146947375	-656.9247725837641	57.37350144802347	0.009891218695188294	0.2464547506264708	-0.5219934978480334	-0.4848092092244292	-0.01899853312373724	-0.5303575732650155	1.088916245854886	-0.7106539725362527	-0.7106539725362541	0.3681812368598213	-0.004441022346829434	-0.3472322824675298	-0.001148733846579342	1.33029446822739e-07	1.536642807059494e-07	-8.017186059852122e-07	1.263491304541464e-06	3.715942655445676e-09	1.923897750045603e-07	-1.051038471779643e-06
1.53	-0.09990805683227251	0.06524801376354279	0.8808037880760606	0.6203396310418485	-0.2269883148010139	-0.1526238101866821	-0.2587069730426113	0.5914187083535842	0.5914187083536312	0.05039949209806321	0.1745255138169922	0.2382677723300272	0.0537578566879394	0.2297640849294334	0.1240231178641181	0.3074914482329984	-1.452322548053852	0.01812091697717984	-0.2966839859380385	0.7342049542395798	-1.761385694910958	-1.761385694910956	0.2883283693974805	1.657516411750719e-05	-0.6318474167387849	-0.1533249916539246	-0.04808267088718336	-0.02225922758441303	0.004690958437424715	-0.3135503753400863	0.06867147163626823	-0.01477882461598119	0.1066928426372009	-36.97079774224107	-19.40702726090073	-5.475877756028215	-3.62503088400137	1.714984950164613	-654.080197465535	57.5914687637963	-0.01294988908570739	0.233059784380911	-0.5609809522490544	-0.3598318915922862	-0.04326664563070524	-0.4998694827750996	1.020621014923508	-0.5546693462285937	-0.5546693462280621	0.4165963713221164	0.005962084909138934	-0.300240465129818	-0.02047158869979952	1.429333695687475e-07	1.532880023536378e-07	-9.293665893492174e-07	1.273090933197643e-06	1.728997940962039e-08	1.948380961970688e-07	-1.130556213755008e-06
1.54	-0.09761133271581458	0.06649964885407832	0.8838500583482386	0.6058005829378574	-0.2268088572258611	-0.1556155786418309	-0.2513152163503112	0.5737798206667354	0.5737798206669015	0.05330249604270566	0.1745256673575291	0.2319353668377177	0.05222440518889358	0.2295481182189772	0.126280242977423	0.3017000316156241	-1.455274626961561	0.0177699710466559	-0.3016429164593304	0.7440232764853505	-1.766126471732708	-1.766126471732702	0.2922578116155153	5.441791855059257e-06	-0.6345406577831321	-0.1533402592183625	-0.04247441752368625	-0.02439918359052401	0.004059421922001443	-0.3105756954382718	0.07288608861291127	-0.0156004345084217	0.1014798849281198	-37.74607265992027	-17.9579363252931	-5.465768131680775	-3.755955523550037	1.217709840374791	-651.3923760246511	57.88654283630099	-0.02913394423305664	0.2181053223081942	-0.5967691641408415	-0.2297297531474839	-0.01880009694134153	-0.4964236673229038	0.9411869642785653	-0.3924462777614731	-0.3924462777614797	0.3501481855849863	-0.01309954966696822	-0.2354395629291619	0.02886057968524601	1.529841987348431e-07	1.521638750287674e-07	-1.060539380253209e-06	1.277092642647824e-06	3.15099421477037e-08	1.960953963881404e-07	-1.207152388379276e-06
1.55	-0.09531776690103455	0.06777314127993683	0.8868366112704743	0.5912384001909924	-0.2266329460204915	-0.1586564220099801	-0.2438289730597359	0.5561015360207856	0.5561015360209129	0.05624423505589311	0.1745258173096375	0.2255788686769563	0.05069151627879787	0.2291317295022843	0.1283937850962772	0.2955550390146675	-1.456947437234475	0.01741222110396316	-0.3065004217657483	0.7530992981681499	-1.769258387091358	-1.769258387091356	0.2960697126695728	2.0895072845361e-05	-0.6366596901791809	-0.1532114344703847	-0.03680702483020234	-0.02670313027397687	0.003432693843592566	-0.3077726933144166	0.07736319481758791	-0.01656622331904895	0.09625599660569199	-38.47435935726111	-16.44164987632552	-5.514211452215219	-3.868747428719567	0.6788634116266243	-648.8721386716453	58.12725916675782	-0.05287401036127558	0.2043210493942054	-0.6316521972892867	-0.1038664911480549	-0.04418214999614466	-0.476374397441285	0.8718972511043874	-0.2327873864495673	-0.2327873864502802	0.3935698009454598	0.0085409197217851	-0.1852159675746323	0.008756982936318139	1.632042896458218e-07	1.501780956268183e-07	-1.195773362453272e-06	1.274644575621528e-06	4.64741239542034e-08	1.959804332514695e-07	-1.280382409316409e-06
1.56	-0.09302936150841416	0.069067037605528	0.8897600566888572	0.5766659273760431	-0.2264605962559617	-0.1617450325182215	-0.2362557520561674	0.5384000875769438	0.5384000875770303	0.05922346482674921	0.1745260564251012	0.2192041640143082	0.04916068832829842	0.22851603378663	0.1303610229239588	0.2890785308450571	-1.457332640578777	0.01705768287875323	-0.3111963444777679	0.761418819083894	-1.77075923131132	-1.770759231311324	0.2997559631488022	2.32744634257581e-05	-0.6381819581605059	-0.1529280672991157	-0.0311396321367142	-0.02900707695742586	0.002805965765166406	-0.3049696911905599	0.08184030102226569	-0.01753201212967067	0.09103210828326712	-39.15131873584788	-14.93530012067391	-5.561028781489544	-3.985643962066727	0.1362358813069482	-646.520088070087	58.4488179474974	-0.06899534402528476	0.1888444640736411	-0.6630722778715884	0.02779163257499171	-0.01815775344477443	-0.4641071484432416	0.7898868108674992	-0.06623205002403118	-0.06623205002403426	0.3250180706193288	-0.01571432774895372	-0.1160866799844387	0.05976906434349031	1.736821688147267e-07	1.492237760772546e-07	-1.331079024853323e-06	1.274411468801212e-06	6.018760992105215e-08	2.005858301702578e-07	-1.352117529547503e-06
1.57	-0.09074813059399262	0.07037982929488981	0.8926171628962057	0.5620960429987653	-0.2262917854751898	-0.1648800310321782	-0.2286032413334313	0.5206917299926105	0.5206917299926986	0.06223884173381256	0.1745264568299625	0.2128171641295377	0.04763344388822564	0.2276910042263174	0.1321679732944983	0.2822945520988752	-1.456419042226151	0.01670749945545142	-0.315769588047581	0.7689486912325856	-1.77063908525023	-1.770639085250239	0.3032928914708827	4.699032827453553e-05	-0.6391204435707405	-0.1524929362222531	-0.02538617738360163	-0.03144283233116564	0.002174338084987012	-0.3023087677661134	0.08643894737865608	-0.01864909761977716	0.08576257089602111	-39.77281019596443	-13.41133983427679	-5.677449527370458	-4.083471598620534	-0.3672776798844515	-644.366270501965	58.69967336330487	-0.09511447108930587	0.1722349420065951	-0.6932410237591881	0.1569396883506924	-0.04293947791201767	-0.448611654869463	0.714342282319291	0.09207983984843703	0.09207983984762941	0.3639146265736066	0.01016668843048728	-0.06806053399948275	0.03947565473603608	1.844822833060394e-07	1.495587813431727e-07	-1.466474287503359e-06	1.276947062238371e-06	7.233772608833721e-08	2.110916771583699e-07	-1.421984023896047e-06
1.58	-0.08847632151698287	0.07170981341164963	0.8954049932459388	0.5475420537553646	-0.2261263746968784	-0.1680596977205572	-0.2208794709161179	0.5029927622500234	0.5029927622501115	0.06528876480681386	0.1745268448224348	0.2064237131781735	0.04611136886399719	0.2266316663037956	0.133799508403559	0.2752233593219776	-1.454153613803754	0.01637768238658306	-0.3201299793621591	0.7756707579992436	-1.768881262962226	-1.76888126296224	0.3066651963358092	2.079198627097592e-05	-0.6394721714792361	-0.1518941841302542	-0.01963272263048488	-0.03387858770490164	0.001542710404792817	-0.299647844341665	0.09103759373504761	-0.01976618310987842	0.08049303350877798	-40.33777520202716	-11.89641226235743	-5.791683352604045	-4.185953201839047	-0.8782489302524686	-642.370640817849	59.03268509918522	-0.1158570164670924	0.1537614117778651	-0.7205150840147336	0.2981576465292882	-0.01408448255807702	-0.4215366973962805	0.6283257344607955	0.2613031953587292	0.2613031953587098	0.292093379188495	-0.02569716911942818	0.001264820363326673	0.09249326737075152	1.948639010621227e-07	1.513579863193e-07	-1.595623715740936e-06	1.282030269698143e-06	8.197708095738071e-08	2.296450449566116e-07	-1.488560256825323e-06
1.59	-0.08621609488265584	0.073055260010809	0.8981207835246284	0.5330171776355753	-0.2259642089792892	-0.171282208896789	-0.2130926454006632	0.4853195254883955	0.4853195254884677	0.06837155043484541	0.1745270358698542	0.2000297258946168	0.04459605794395806	0.2253778582888805	0.1352623843773856	0.2678940482214791	-1.450598110930687	0.01605640020899514	-0.3243400979251313	0.781563731261754	-1.765479964809929	-1.765479964809958	0.3098616178579982	1.802532918316698e-05	-0.6392160092319088	-0.1511408904519408	-0.01391598439136969	-0.03649910006303575	0.0008960732149524656	-0.2971211701458249	0.09583863684310585	-0.02100417194555417	0.07530401336773956	-40.8461643997513	-10.33458307386242	-5.954580779863143	-4.275687088721929	-1.440514034369978	-640.603689782784	59.32755428250734	-0.1355003761588404	0.1384550170197835	-0.7451810150458533	0.4177878530712331	-0.04098380277763838	-0.415654298067055	0.5501910477188175	0.4224197029770088	0.4224197029747646	0.328700749274595	0.01275642553574868	0.05422169528831548	0.07068520479350203	2.046775589632519e-07	1.551443194735684e-07	-1.716296654418749e-06	1.29057095333146e-06	8.820897406452515e-08	2.591200481400287e-07	-1.550671134971308e-06
